<svg xmlns="http://www.w3.org/2000/svg" viewBox="0 0 240 180" data-label="IPE 200"><defs><linearGradient id="ipe-b-hl" gradientUnits="userSpaceOnUse" x1="40" y1="116" x2="269.81" y2="-76.84"><stop offset="0" stop-color="#F08A3C"/><stop offset=".28" stop-color="#C0281B"/><stop offset=".52" stop-color="#B87333"/><stop offset=".78" stop-color="#9AA1A8"/><stop offset="1" stop-color="#C9CED3"/></linearGradient><radialGradient id="ipe-b-hf" gradientUnits="userSpaceOnUse" cx="40" cy="116" r="72"><stop offset="0" stop-color="#F08A3C"/><stop offset="1" stop-color="#C0281B"/></radialGradient></defs><g class="pi-shadow"><path class="f-shadow" fill="#9AA1A8" transform="translate(3 3)" d="M31.9 156.9L16 156.9L261.13 -48.79L277.04 -48.79ZM32.28 156.89L31.9 156.9L277.04 -48.79L277.41 -48.8ZM32.65 156.85L32.28 156.89L277.41 -48.8L277.79 -48.84ZM33.03 156.79L32.65 156.85L277.79 -48.84L278.16 -48.9ZM33.39 156.7L33.03 156.79L278.16 -48.9L278.53 -48.99ZM33.75 156.6L33.39 156.7L278.53 -48.99L278.89 -49.1ZM34.11 156.46L33.75 156.6L278.89 -49.1L279.24 -49.23ZM34.45 156.31L34.11 156.46L279.24 -49.23L279.58 -49.39ZM34.78 156.13L34.45 156.31L279.58 -49.39L279.92 -49.56ZM35.1 155.93L34.78 156.13L279.92 -49.56L280.24 -49.76ZM35.41 155.71L35.1 155.93L280.24 -49.76L280.54 -49.98ZM35.7 155.47L35.41 155.71L280.54 -49.98L280.83 -50.22ZM43.77 154.94L43.53 154.65L288.66 -51.04L288.9 -50.75ZM44.03 155.21L43.77 154.94L288.9 -50.75L289.16 -50.48ZM43.53 154.65L43.31 154.34L288.44 -51.35L288.66 -51.04ZM44.3 155.47L44.03 155.21L289.16 -50.48L289.43 -50.22ZM43.31 154.34L43.11 154.02L288.24 -51.67L288.44 -51.35ZM44.59 155.71L44.3 155.47L289.43 -50.22L289.73 -49.98ZM43.11 154.02L42.93 153.69L288.07 -52L288.24 -51.67ZM44.9 155.93L44.59 155.71L289.73 -49.98L290.03 -49.76ZM42.93 153.69L42.78 153.35L287.91 -52.35L288.07 -52ZM45.22 156.13L44.9 155.93L290.03 -49.76L290.35 -49.56ZM42.78 153.35L42.64 152.99L287.78 -52.7L287.91 -52.35ZM45.55 156.31L45.22 156.13L290.35 -49.56L290.69 -49.39ZM42.64 152.99L42.53 152.63L287.67 -53.06L287.78 -52.7ZM45.89 156.46L45.55 156.31L290.69 -49.39L291.03 -49.23ZM42.53 152.63L42.45 152.26L287.58 -53.43L287.67 -53.06ZM46.25 156.6L45.89 156.46L291.03 -49.23L291.38 -49.1ZM42.45 152.26L42.39 151.89L287.52 -53.8L287.58 -53.43ZM46.61 156.7L46.25 156.6L291.38 -49.1L291.74 -48.99ZM42.39 151.89L42.35 151.52L287.49 -54.17L287.52 -53.8ZM46.97 156.79L46.61 156.7L291.74 -48.99L292.11 -48.9ZM42.35 151.52L42.34 151.14L287.47 -54.55L287.49 -54.17ZM47.35 156.85L46.97 156.79L292.11 -48.9L292.48 -48.84ZM47.72 156.89L47.35 156.85L292.48 -48.84L292.86 -48.8ZM48.1 156.9L47.72 156.89L292.86 -48.8L293.23 -48.79ZM64 156.9L48.1 156.9L293.23 -48.79L309.13 -48.79ZM64 164L64 156.9L309.13 -48.79L309.13 -41.69ZM42.34 151.14L42.34 80.86L287.47 -124.83L287.47 -54.55ZM42.34 80.86L42.35 80.48L287.49 -125.21L287.47 -124.83ZM42.35 80.48L42.39 80.11L287.52 -125.58L287.49 -125.21ZM42.39 80.11L42.45 79.74L287.58 -125.96L287.52 -125.58ZM42.45 79.74L42.53 79.37L287.67 -126.32L287.58 -125.96ZM42.53 79.37L42.64 79.01L287.78 -126.68L287.67 -126.32ZM42.64 79.01L42.78 78.65L287.91 -127.04L287.78 -126.68ZM42.78 78.65L42.93 78.31L288.07 -127.38L287.91 -127.04ZM42.93 78.31L43.11 77.98L288.24 -127.71L288.07 -127.38ZM43.11 77.98L43.31 77.66L288.44 -128.03L288.24 -127.71ZM43.31 77.66L43.53 77.35L288.66 -128.34L288.44 -128.03ZM43.53 77.35L43.77 77.06L288.9 -128.63L288.66 -128.34ZM43.77 77.06L44.03 76.79L289.16 -128.91L288.9 -128.63ZM44.03 76.79L44.3 76.53L289.43 -129.16L289.16 -128.91ZM64 68L16 68L261.13 -137.69L309.13 -137.69ZM64 75.1L64 68L309.13 -137.69L309.13 -130.59ZM16 164L64 164L64 156.9L48.1 156.9L47.72 156.89L47.35 156.85L46.97 156.79L46.61 156.7L46.25 156.6L45.89 156.46L45.55 156.31L45.22 156.13L44.9 155.93L44.59 155.71L44.3 155.47L44.03 155.21L43.77 154.94L43.53 154.65L43.31 154.34L43.11 154.02L42.93 153.69L42.78 153.35L42.64 152.99L42.53 152.63L42.45 152.26L42.39 151.89L42.35 151.52L42.34 151.14L42.34 80.86L42.35 80.48L42.39 80.11L42.45 79.74L42.53 79.37L42.64 79.01L42.78 78.65L42.93 78.31L43.11 77.98L43.31 77.66L43.53 77.35L43.77 77.06L44.03 76.79L44.3 76.53L44.59 76.29L44.9 76.07L45.22 75.87L45.55 75.69L45.89 75.54L46.25 75.4L46.61 75.3L46.97 75.21L47.35 75.15L47.72 75.11L48.1 75.1L64 75.1L64 68L16 68L16 75.1L31.9 75.1L32.28 75.11L32.65 75.15L33.03 75.21L33.39 75.3L33.75 75.4L34.11 75.54L34.45 75.69L34.78 75.87L35.1 76.07L35.41 76.29L35.7 76.53L35.97 76.79L36.23 77.06L36.47 77.35L36.69 77.66L36.89 77.98L37.07 78.31L37.22 78.65L37.36 79.01L37.47 79.37L37.55 79.74L37.61 80.11L37.65 80.48L37.66 80.86L37.66 151.14L37.65 151.52L37.61 151.89L37.55 152.26L37.47 152.63L37.36 152.99L37.22 153.35L37.07 153.69L36.89 154.02L36.69 154.34L36.47 154.65L36.23 154.94L35.97 155.21L35.7 155.47L35.41 155.71L35.1 155.93L34.78 156.13L34.45 156.31L34.11 156.46L33.75 156.6L33.39 156.7L33.03 156.79L32.65 156.85L32.28 156.89L31.9 156.9L16 156.9Z"/></g><path class="f-long" fill="#C9CED3" stroke="#C9CED3" stroke-width=".4" stroke-linejoin="round" d="M31.9 156.9L16 156.9L261.13 -48.79L277.04 -48.79ZM32.28 156.89L31.9 156.9L277.04 -48.79L277.41 -48.8ZM32.65 156.85L32.28 156.89L277.41 -48.8L277.79 -48.84ZM33.03 156.79L32.65 156.85L277.79 -48.84L278.16 -48.9ZM33.39 156.7L33.03 156.79L278.16 -48.9L278.53 -48.99ZM33.75 156.6L33.39 156.7L278.53 -48.99L278.89 -49.1ZM34.11 156.46L33.75 156.6L278.89 -49.1L279.24 -49.23ZM34.45 156.31L34.11 156.46L279.24 -49.23L279.58 -49.39ZM34.78 156.13L34.45 156.31L279.58 -49.39L279.92 -49.56ZM35.1 155.93L34.78 156.13L279.92 -49.56L280.24 -49.76ZM35.41 155.71L35.1 155.93L280.24 -49.76L280.54 -49.98ZM35.7 155.47L35.41 155.71L280.54 -49.98L280.83 -50.22Z"/><path class="hot" opacity="0" fill="url(#ipe-b-hl)" stroke="url(#ipe-b-hl)" stroke-width=".4" stroke-linejoin="round" d="M31.9 156.9L16 156.9L261.13 -48.79L277.04 -48.79ZM32.28 156.89L31.9 156.9L277.04 -48.79L277.41 -48.8ZM32.65 156.85L32.28 156.89L277.41 -48.8L277.79 -48.84ZM33.03 156.79L32.65 156.85L277.79 -48.84L278.16 -48.9ZM33.39 156.7L33.03 156.79L278.16 -48.9L278.53 -48.99ZM33.75 156.6L33.39 156.7L278.53 -48.99L278.89 -49.1ZM34.11 156.46L33.75 156.6L278.89 -49.1L279.24 -49.23ZM34.45 156.31L34.11 156.46L279.24 -49.23L279.58 -49.39ZM34.78 156.13L34.45 156.31L279.58 -49.39L279.92 -49.56ZM35.1 155.93L34.78 156.13L279.92 -49.56L280.24 -49.76ZM35.41 155.71L35.1 155.93L280.24 -49.76L280.54 -49.98ZM35.7 155.47L35.41 155.71L280.54 -49.98L280.83 -50.22Z"/><path class="f-line" fill="none" stroke="#2B2F33" stroke-linejoin="miter" stroke-linecap="round" stroke-width="2.3" d="M16 156.9L261.13 -48.79M35.7 155.47L280.83 -50.22"/><path class="f-deep" fill="#9AA1A8" stroke="#9AA1A8" stroke-width=".4" stroke-linejoin="round" d="M43.77 154.94L43.53 154.65L288.66 -51.04L288.9 -50.75Z"/><path class="f-long" fill="#C9CED3" stroke="#C9CED3" stroke-width=".4" stroke-linejoin="round" d="M44.03 155.21L43.77 154.94L288.9 -50.75L289.16 -50.48Z"/><path class="hot" opacity="0" fill="url(#ipe-b-hl)" stroke="url(#ipe-b-hl)" stroke-width=".4" stroke-linejoin="round" d="M44.03 155.21L43.77 154.94L288.9 -50.75L289.16 -50.48Z"/><path class="f-deep" fill="#9AA1A8" stroke="#9AA1A8" stroke-width=".4" stroke-linejoin="round" d="M43.53 154.65L43.31 154.34L288.44 -51.35L288.66 -51.04Z"/><path class="f-long" fill="#C9CED3" stroke="#C9CED3" stroke-width=".4" stroke-linejoin="round" d="M44.3 155.47L44.03 155.21L289.16 -50.48L289.43 -50.22Z"/><path class="hot" opacity="0" fill="url(#ipe-b-hl)" stroke="url(#ipe-b-hl)" stroke-width=".4" stroke-linejoin="round" d="M44.3 155.47L44.03 155.21L289.16 -50.48L289.43 -50.22Z"/><path class="f-deep" fill="#9AA1A8" stroke="#9AA1A8" stroke-width=".4" stroke-linejoin="round" d="M43.31 154.34L43.11 154.02L288.24 -51.67L288.44 -51.35Z"/><path class="f-long" fill="#C9CED3" stroke="#C9CED3" stroke-width=".4" stroke-linejoin="round" d="M44.59 155.71L44.3 155.47L289.43 -50.22L289.73 -49.98Z"/><path class="hot" opacity="0" fill="url(#ipe-b-hl)" stroke="url(#ipe-b-hl)" stroke-width=".4" stroke-linejoin="round" d="M44.59 155.71L44.3 155.47L289.43 -50.22L289.73 -49.98Z"/><path class="f-deep" fill="#9AA1A8" stroke="#9AA1A8" stroke-width=".4" stroke-linejoin="round" d="M43.11 154.02L42.93 153.69L288.07 -52L288.24 -51.67Z"/><path class="f-long" fill="#C9CED3" stroke="#C9CED3" stroke-width=".4" stroke-linejoin="round" d="M44.9 155.93L44.59 155.71L289.73 -49.98L290.03 -49.76Z"/><path class="hot" opacity="0" fill="url(#ipe-b-hl)" stroke="url(#ipe-b-hl)" stroke-width=".4" stroke-linejoin="round" d="M44.9 155.93L44.59 155.71L289.73 -49.98L290.03 -49.76Z"/><path class="f-deep" fill="#9AA1A8" stroke="#9AA1A8" stroke-width=".4" stroke-linejoin="round" d="M42.93 153.69L42.78 153.35L287.91 -52.35L288.07 -52Z"/><path class="f-long" fill="#C9CED3" stroke="#C9CED3" stroke-width=".4" stroke-linejoin="round" d="M45.22 156.13L44.9 155.93L290.03 -49.76L290.35 -49.56Z"/><path class="hot" opacity="0" fill="url(#ipe-b-hl)" stroke="url(#ipe-b-hl)" stroke-width=".4" stroke-linejoin="round" d="M45.22 156.13L44.9 155.93L290.03 -49.76L290.35 -49.56Z"/><path class="f-deep" fill="#9AA1A8" stroke="#9AA1A8" stroke-width=".4" stroke-linejoin="round" d="M42.78 153.35L42.64 152.99L287.78 -52.7L287.91 -52.35Z"/><path class="f-long" fill="#C9CED3" stroke="#C9CED3" stroke-width=".4" stroke-linejoin="round" d="M45.55 156.31L45.22 156.13L290.35 -49.56L290.69 -49.39Z"/><path class="hot" opacity="0" fill="url(#ipe-b-hl)" stroke="url(#ipe-b-hl)" stroke-width=".4" stroke-linejoin="round" d="M45.55 156.31L45.22 156.13L290.35 -49.56L290.69 -49.39Z"/><path class="f-deep" fill="#9AA1A8" stroke="#9AA1A8" stroke-width=".4" stroke-linejoin="round" d="M42.64 152.99L42.53 152.63L287.67 -53.06L287.78 -52.7Z"/><path class="f-long" fill="#C9CED3" stroke="#C9CED3" stroke-width=".4" stroke-linejoin="round" d="M45.89 156.46L45.55 156.31L290.69 -49.39L291.03 -49.23Z"/><path class="hot" opacity="0" fill="url(#ipe-b-hl)" stroke="url(#ipe-b-hl)" stroke-width=".4" stroke-linejoin="round" d="M45.89 156.46L45.55 156.31L290.69 -49.39L291.03 -49.23Z"/><path class="f-deep" fill="#9AA1A8" stroke="#9AA1A8" stroke-width=".4" stroke-linejoin="round" d="M42.53 152.63L42.45 152.26L287.58 -53.43L287.67 -53.06Z"/><path class="f-long" fill="#C9CED3" stroke="#C9CED3" stroke-width=".4" stroke-linejoin="round" d="M46.25 156.6L45.89 156.46L291.03 -49.23L291.38 -49.1Z"/><path class="hot" opacity="0" fill="url(#ipe-b-hl)" stroke="url(#ipe-b-hl)" stroke-width=".4" stroke-linejoin="round" d="M46.25 156.6L45.89 156.46L291.03 -49.23L291.38 -49.1Z"/><path class="f-deep" fill="#9AA1A8" stroke="#9AA1A8" stroke-width=".4" stroke-linejoin="round" d="M42.45 152.26L42.39 151.89L287.52 -53.8L287.58 -53.43Z"/><path class="f-long" fill="#C9CED3" stroke="#C9CED3" stroke-width=".4" stroke-linejoin="round" d="M46.61 156.7L46.25 156.6L291.38 -49.1L291.74 -48.99Z"/><path class="hot" opacity="0" fill="url(#ipe-b-hl)" stroke="url(#ipe-b-hl)" stroke-width=".4" stroke-linejoin="round" d="M46.61 156.7L46.25 156.6L291.38 -49.1L291.74 -48.99Z"/><path class="f-deep" fill="#9AA1A8" stroke="#9AA1A8" stroke-width=".4" stroke-linejoin="round" d="M42.39 151.89L42.35 151.52L287.49 -54.17L287.52 -53.8Z"/><path class="f-long" fill="#C9CED3" stroke="#C9CED3" stroke-width=".4" stroke-linejoin="round" d="M46.97 156.79L46.61 156.7L291.74 -48.99L292.11 -48.9Z"/><path class="hot" opacity="0" fill="url(#ipe-b-hl)" stroke="url(#ipe-b-hl)" stroke-width=".4" stroke-linejoin="round" d="M46.97 156.79L46.61 156.7L291.74 -48.99L292.11 -48.9Z"/><path class="f-deep" fill="#9AA1A8" stroke="#9AA1A8" stroke-width=".4" stroke-linejoin="round" d="M42.35 151.52L42.34 151.14L287.47 -54.55L287.49 -54.17Z"/><path class="f-long" fill="#C9CED3" stroke="#C9CED3" stroke-width=".4" stroke-linejoin="round" d="M47.35 156.85L46.97 156.79L292.11 -48.9L292.48 -48.84ZM47.72 156.89L47.35 156.85L292.48 -48.84L292.86 -48.8ZM48.1 156.9L47.72 156.89L292.86 -48.8L293.23 -48.79ZM64 156.9L48.1 156.9L293.23 -48.79L309.13 -48.79Z"/><path class="hot" opacity="0" fill="url(#ipe-b-hl)" stroke="url(#ipe-b-hl)" stroke-width=".4" stroke-linejoin="round" d="M47.35 156.85L46.97 156.79L292.11 -48.9L292.48 -48.84ZM47.72 156.89L47.35 156.85L292.48 -48.84L292.86 -48.8ZM48.1 156.9L47.72 156.89L292.86 -48.8L293.23 -48.79ZM64 156.9L48.1 156.9L293.23 -48.79L309.13 -48.79Z"/><path class="f-deep" fill="#9AA1A8" stroke="#9AA1A8" stroke-width=".4" stroke-linejoin="round" d="M64 164L64 156.9L309.13 -48.79L309.13 -41.69ZM42.34 151.14L42.34 80.86L287.47 -124.83L287.47 -54.55ZM42.34 80.86L42.35 80.48L287.49 -125.21L287.47 -124.83ZM42.35 80.48L42.39 80.11L287.52 -125.58L287.49 -125.21ZM42.39 80.11L42.45 79.74L287.58 -125.96L287.52 -125.58ZM42.45 79.74L42.53 79.37L287.67 -126.32L287.58 -125.96ZM42.53 79.37L42.64 79.01L287.78 -126.68L287.67 -126.32ZM42.64 79.01L42.78 78.65L287.91 -127.04L287.78 -126.68ZM42.78 78.65L42.93 78.31L288.07 -127.38L287.91 -127.04ZM42.93 78.31L43.11 77.98L288.24 -127.71L288.07 -127.38ZM43.11 77.98L43.31 77.66L288.44 -128.03L288.24 -127.71ZM43.31 77.66L43.53 77.35L288.66 -128.34L288.44 -128.03ZM43.53 77.35L43.77 77.06L288.9 -128.63L288.66 -128.34ZM43.77 77.06L44.03 76.79L289.16 -128.91L288.9 -128.63ZM44.03 76.79L44.3 76.53L289.43 -129.16L289.16 -128.91Z"/><path class="f-line" fill="none" stroke="#2B2F33" stroke-linejoin="miter" stroke-linecap="round" stroke-width="2.3" d="M64 164L309.13 -41.69M64 156.9L309.13 -48.79M44.3 76.53L289.43 -129.16"/><path class="f-long" fill="#C9CED3" stroke="#C9CED3" stroke-width=".4" stroke-linejoin="round" d="M64 68L16 68L261.13 -137.69L309.13 -137.69Z"/><path class="hot" opacity="0" fill="url(#ipe-b-hl)" stroke="url(#ipe-b-hl)" stroke-width=".4" stroke-linejoin="round" d="M64 68L16 68L261.13 -137.69L309.13 -137.69Z"/><path class="f-line" fill="none" stroke="#2B2F33" stroke-linejoin="miter" stroke-linecap="round" stroke-width="2.3" d="M16 68L261.13 -137.69"/><path class="f-deep" fill="#9AA1A8" stroke="#9AA1A8" stroke-width=".4" stroke-linejoin="round" d="M64 75.1L64 68L309.13 -137.69L309.13 -130.59Z"/><path class="f-line" fill="none" stroke="#2B2F33" stroke-linejoin="miter" stroke-linecap="round" stroke-width="2.3" d="M64 75.1L309.13 -130.59M64 68L309.13 -137.69"/><path class="f-front" fill="#E4E7EA" d="M16 164L64 164L64 156.9L48.1 156.9L47.72 156.89L47.35 156.85L46.97 156.79L46.61 156.7L46.25 156.6L45.89 156.46L45.55 156.31L45.22 156.13L44.9 155.93L44.59 155.71L44.3 155.47L44.03 155.21L43.77 154.94L43.53 154.65L43.31 154.34L43.11 154.02L42.93 153.69L42.78 153.35L42.64 152.99L42.53 152.63L42.45 152.26L42.39 151.89L42.35 151.52L42.34 151.14L42.34 80.86L42.35 80.48L42.39 80.11L42.45 79.74L42.53 79.37L42.64 79.01L42.78 78.65L42.93 78.31L43.11 77.98L43.31 77.66L43.53 77.35L43.77 77.06L44.03 76.79L44.3 76.53L44.59 76.29L44.9 76.07L45.22 75.87L45.55 75.69L45.89 75.54L46.25 75.4L46.61 75.3L46.97 75.21L47.35 75.15L47.72 75.11L48.1 75.1L64 75.1L64 68L16 68L16 75.1L31.9 75.1L32.28 75.11L32.65 75.15L33.03 75.21L33.39 75.3L33.75 75.4L34.11 75.54L34.45 75.69L34.78 75.87L35.1 76.07L35.41 76.29L35.7 76.53L35.97 76.79L36.23 77.06L36.47 77.35L36.69 77.66L36.89 77.98L37.07 78.31L37.22 78.65L37.36 79.01L37.47 79.37L37.55 79.74L37.61 80.11L37.65 80.48L37.66 80.86L37.66 151.14L37.65 151.52L37.61 151.89L37.55 152.26L37.47 152.63L37.36 152.99L37.22 153.35L37.07 153.69L36.89 154.02L36.69 154.34L36.47 154.65L36.23 154.94L35.97 155.21L35.7 155.47L35.41 155.71L35.1 155.93L34.78 156.13L34.45 156.31L34.11 156.46L33.75 156.6L33.39 156.7L33.03 156.79L32.65 156.85L32.28 156.89L31.9 156.9L16 156.9Z"/><path class="hot" opacity="0" fill="url(#ipe-b-hf)" d="M16 164L64 164L64 156.9L48.1 156.9L47.72 156.89L47.35 156.85L46.97 156.79L46.61 156.7L46.25 156.6L45.89 156.46L45.55 156.31L45.22 156.13L44.9 155.93L44.59 155.71L44.3 155.47L44.03 155.21L43.77 154.94L43.53 154.65L43.31 154.34L43.11 154.02L42.93 153.69L42.78 153.35L42.64 152.99L42.53 152.63L42.45 152.26L42.39 151.89L42.35 151.52L42.34 151.14L42.34 80.86L42.35 80.48L42.39 80.11L42.45 79.74L42.53 79.37L42.64 79.01L42.78 78.65L42.93 78.31L43.11 77.98L43.31 77.66L43.53 77.35L43.77 77.06L44.03 76.79L44.3 76.53L44.59 76.29L44.9 76.07L45.22 75.87L45.55 75.69L45.89 75.54L46.25 75.4L46.61 75.3L46.97 75.21L47.35 75.15L47.72 75.11L48.1 75.1L64 75.1L64 68L16 68L16 75.1L31.9 75.1L32.28 75.11L32.65 75.15L33.03 75.21L33.39 75.3L33.75 75.4L34.11 75.54L34.45 75.69L34.78 75.87L35.1 76.07L35.41 76.29L35.7 76.53L35.97 76.79L36.23 77.06L36.47 77.35L36.69 77.66L36.89 77.98L37.07 78.31L37.22 78.65L37.36 79.01L37.47 79.37L37.55 79.74L37.61 80.11L37.65 80.48L37.66 80.86L37.66 151.14L37.65 151.52L37.61 151.89L37.55 152.26L37.47 152.63L37.36 152.99L37.22 153.35L37.07 153.69L36.89 154.02L36.69 154.34L36.47 154.65L36.23 154.94L35.97 155.21L35.7 155.47L35.41 155.71L35.1 155.93L34.78 156.13L34.45 156.31L34.11 156.46L33.75 156.6L33.39 156.7L33.03 156.79L32.65 156.85L32.28 156.89L31.9 156.9L16 156.9Z"/><clipPath id="ipe-b-c0"><path d="M16 164L64 164L64 156.9L48.1 156.9L47.72 156.89L47.35 156.85L46.97 156.79L46.61 156.7L46.25 156.6L45.89 156.46L45.55 156.31L45.22 156.13L44.9 155.93L44.59 155.71L44.3 155.47L44.03 155.21L43.77 154.94L43.53 154.65L43.31 154.34L43.11 154.02L42.93 153.69L42.78 153.35L42.64 152.99L42.53 152.63L42.45 152.26L42.39 151.89L42.35 151.52L42.34 151.14L42.34 80.86L42.35 80.48L42.39 80.11L42.45 79.74L42.53 79.37L42.64 79.01L42.78 78.65L42.93 78.31L43.11 77.98L43.31 77.66L43.53 77.35L43.77 77.06L44.03 76.79L44.3 76.53L44.59 76.29L44.9 76.07L45.22 75.87L45.55 75.69L45.89 75.54L46.25 75.4L46.61 75.3L46.97 75.21L47.35 75.15L47.72 75.11L48.1 75.1L64 75.1L64 68L16 68L16 75.1L31.9 75.1L32.28 75.11L32.65 75.15L33.03 75.21L33.39 75.3L33.75 75.4L34.11 75.54L34.45 75.69L34.78 75.87L35.1 76.07L35.41 76.29L35.7 76.53L35.97 76.79L36.23 77.06L36.47 77.35L36.69 77.66L36.89 77.98L37.07 78.31L37.22 78.65L37.36 79.01L37.47 79.37L37.55 79.74L37.61 80.11L37.65 80.48L37.66 80.86L37.66 151.14L37.65 151.52L37.61 151.89L37.55 152.26L37.47 152.63L37.36 152.99L37.22 153.35L37.07 153.69L36.89 154.02L36.69 154.34L36.47 154.65L36.23 154.94L35.97 155.21L35.7 155.47L35.41 155.71L35.1 155.93L34.78 156.13L34.45 156.31L34.11 156.46L33.75 156.6L33.39 156.7L33.03 156.79L32.65 156.85L32.28 156.89L31.9 156.9L16 156.9Z"/></clipPath><path class="f-line" clip-path="url(#ipe-b-c0)" fill="none" stroke="#2B2F33" stroke-linejoin="miter" stroke-linecap="round" stroke-width="4.6" d="M16 164L64 164L64 156.9L48.1 156.9L47.72 156.89L47.35 156.85L46.97 156.79L46.61 156.7L46.25 156.6L45.89 156.46L45.55 156.31L45.22 156.13L44.9 155.93L44.59 155.71L44.3 155.47L44.03 155.21L43.77 154.94L43.53 154.65L43.31 154.34L43.11 154.02L42.93 153.69L42.78 153.35L42.64 152.99L42.53 152.63L42.45 152.26L42.39 151.89L42.35 151.52L42.34 151.14L42.34 80.86L42.35 80.48L42.39 80.11L42.45 79.74L42.53 79.37L42.64 79.01L42.78 78.65L42.93 78.31L43.11 77.98L43.31 77.66L43.53 77.35L43.77 77.06L44.03 76.79L44.3 76.53L44.59 76.29L44.9 76.07L45.22 75.87L45.55 75.69L45.89 75.54L46.25 75.4L46.61 75.3L46.97 75.21L47.35 75.15L47.72 75.11L48.1 75.1L64 75.1L64 68L16 68L16 75.1L31.9 75.1L32.28 75.11L32.65 75.15L33.03 75.21L33.39 75.3L33.75 75.4L34.11 75.54L34.45 75.69L34.78 75.87L35.1 76.07L35.41 76.29L35.7 76.53L35.97 76.79L36.23 77.06L36.47 77.35L36.69 77.66L36.89 77.98L37.07 78.31L37.22 78.65L37.36 79.01L37.47 79.37L37.55 79.74L37.61 80.11L37.65 80.48L37.66 80.86L37.66 151.14L37.65 151.52L37.61 151.89L37.55 152.26L37.47 152.63L37.36 152.99L37.22 153.35L37.07 153.69L36.89 154.02L36.69 154.34L36.47 154.65L36.23 154.94L35.97 155.21L35.7 155.47L35.41 155.71L35.1 155.93L34.78 156.13L34.45 156.31L34.11 156.46L33.75 156.6L33.39 156.7L33.03 156.79L32.65 156.85L32.28 156.89L31.9 156.9L16 156.9Z"/></svg>
